<!DOCTYPE svg PUBLIC "-//W3C//DTD SVG 20010904//EN" "http://www.w3.org/TR/2001/REC-SVG-20010904/DTD/svg10.dtd">
<svg version="1.0" xmlns="http://www.w3.org/2000/svg" width="584px" height="281px" viewBox="0 0 5840 2810" preserveAspectRatio="xMidYMid meet">
<g id="layer1" fill="#fefefe" stroke="none">
 <path d="M0 1405 l0 -1405 2920 0 2920 0 0 1405 0 1405 -2920 0 -2920 0 0 -1405z m5195 1361 c13 -13 27 -40 30 -60 4 -20 13 -36 19 -36 7 0 21 -8 32 -19 20 -18 21 -18 32 0 14 22 71 26 90 7 9 -9 12 -9 12 1 0 8 12 11 37 9 l37 -3 18 -84 c20 -89 31 -111 56 -111 11 0 13 8 8 38 -17 96 -18 132 -6 147 15 18 61 20 78 3 17 -17 15 -38 -4 -38 -14 0 -15 -7 -10 -37 17 -95 18 -133 7 -147 -9 -10 -35 -14 -92 -14 -43 0 -79 1 -79 3 0 1 -7 38 -16 81 -16 79 -35 114 -61 114 -17 0 -16 -18 6 -117 l18 -83 -38 0 -38 0 -11 58 c-14 74 -37 137 -56 153 -8 6 -16 10 -18 8 -3 -2 6 -52 19 -111 l23 -107 -79 0 c-69 0 -83 3 -108 25 -29 24 -61 98 -61 141 0 23 -24 42 -37 29 -4 -3 1 -41 10 -84 24 -109 23 -112 -17 -112 l-33 0 -18 83 c-20 94 -30 117 -50 117 -19 0 -19 -17 4 -117 l18 -83 -39 0 c-21 0 -38 2 -38 4 0 2 -7 39 -16 82 -16 79 -35 114 -61 114 -18 0 -17 -13 12 -146 33 -152 33 -151 -10 -146 -19 2 -35 6 -35 7 0 2 -11 55 -25 119 -28 127 -31 186 -13 204 17 17 64 15 92 -3 21 -14 24 -14 36 0 16 19 59 19 87 0 18 -13 22 -13 33 0 16 19 60 19 85 1 16 -12 22 -12 42 1 16 11 36 14 61 10 l37 -6 -30 16 c-38 19 -55 41 -55 69 0 47 75 60 115 20z m-2582 -117 l29 -21 14 21 c18 25 60 28 91 6 18 -13 22 -13 33 0 17 21 63 19 90 -3 23 -18 24 -18 43 1 27 27 107 19 142 -13 14 -13 26 -22 27 -19 2 2 8 13 14 24 14 25 58 31 89 11 20 -13 25 -13 35 -1 8 10 33 13 88 12 l76 -2 18 -85 c19 -86 39 -123 57 -105 7 7 3 42 -9 100 -11 49 -20 91 -20 93 0 2 17 2 38 0 l37 -3 18 -84 c18 -89 29 -111 55 -111 11 0 13 8 8 38 -17 96 -18 132 -6 147 17 20 76 19 98 -2 16 -17 18 -17 35 0 22 22 80 22 117 1 38 -23 61 -66 67 -129 8 -72 -14 -109 -59 -103 -30 5 -30 5 -24 -34 4 -22 7 -45 9 -51 1 -7 -11 -10 -33 -8 -19 1 -36 4 -37 5 -2 1 -14 56 -28 122 -27 124 -44 164 -71 164 -13 0 -15 -7 -10 -32 16 -91 18 -138 6 -153 -16 -19 -74 -19 -90 0 -11 14 -15 14 -29 1 -11 -10 -40 -14 -93 -14 l-77 -1 -11 57 c-20 102 -31 133 -46 139 -26 10 -28 -5 -11 -85 24 -109 23 -112 -17 -112 l-33 0 -18 83 c-20 94 -30 117 -50 117 -19 0 -19 -17 4 -117 l18 -83 -39 0 c-21 0 -38 2 -38 4 0 24 -33 153 -42 163 -20 24 -68 44 -90 37 -18 -5 -20 -12 -16 -53 6 -55 35 -121 54 -121 8 0 14 10 14 26 0 33 33 29 38 -4 5 -34 -15 -52 -59 -52 -58 0 -96 39 -118 120 -17 60 -41 93 -57 77 -4 -4 0 -42 9 -85 24 -109 23 -112 -17 -112 l-33 0 -18 83 c-20 94 -30 117 -50 117 -19 0 -19 -17 4 -117 l18 -83 -38 0 -38 0 -11 58 c-22 110 -24 115 -62 134 -46 24 -85 16 -100 -21 -13 -34 5 -147 32 -201 25 -49 58 -74 78 -58 13 11 12 23 -3 61 -7 16 -3 18 21 15 25 -3 29 -8 32 -40 4 -50 -29 -73 -95 -65 -94 10 -160 126 -151 263 4 67 22 99 62 107 38 9 100 -3 129 -24z m1455 -3 c25 -21 31 -20 25 5 -5 18 -2 20 33 17 l38 -3 20 -93 c14 -61 27 -97 38 -103 13 -7 18 -4 23 11 13 40 59 12 53 -32 -4 -27 -41 -36 -65 -16 -13 10 -17 10 -20 1 -4 -12 -73 -19 -73 -9 0 24 -33 153 -42 163 -19 24 -68 44 -88 38 -34 -11 -25 -49 15 -64 61 -22 97 -95 63 -129 -22 -22 -84 -14 -117 14 -57 47 -78 186 -33 214 24 15 109 6 130 -14z m462 -33 c15 -79 17 -83 36 -83 31 0 87 -34 105 -64 26 -43 25 -98 -4 -131 -48 -57 -174 -40 -237 31 -40 46 -40 91 1 106 13 5 18 -2 22 -38 6 -54 36 -90 86 -104 56 -15 85 4 89 61 2 38 -2 52 -23 78 -45 53 -55 41 -35 -44 l17 -75 -38 0 c-22 0 -39 2 -39 5 0 2 -13 68 -30 145 -16 77 -30 147 -30 155 0 10 11 15 34 15 34 0 35 -1 46 -57z m-2875 -47 c115 -34 225 -88 360 -177 76 -50 105 -73 97 -81 -11 -11 -140 -3 -452 29 -210 21 -463 14 -573 -16 -105 -29 -170 -59 -262 -121 -106 -71 -148 -111 -218 -205 -151 -204 -214 -414 -204 -682 5 -154 27 -247 92 -388 219 -482 750 -732 1221 -575 360 120 610 437 643 813 11 129 27 168 76 191 89 42 175 -19 175 -125 0 -138 -61 -382 -131 -521 -141 -282 -424 -514 -734 -603 -414 -119 -876 14 -1206 346 -236 238 -369 535 -386 865 -18 354 105 681 351 932 140 144 290 235 485 296 142 45 229 56 411 52 141 -3 178 -8 255 -30z m3755 -180 c6 -8 10 -25 8 -38 -6 -42 -78 -32 -78 11 0 37 46 55 70 27z m-3585 -171 c171 -14 340 -28 377 -31 l67 -6 64 -86 c94 -128 110 -153 103 -159 -6 -7 -540 21 -841 43 -329 25 -436 9 -579 -87 -87 -58 -133 -107 -184 -199 -113 -201 -115 -453 -5 -662 20 -38 65 -100 100 -138 251 -271 626 -301 886 -70 109 98 195 264 198 380 2 130 44 190 133 190 98 0 138 -84 110 -233 -76 -411 -360 -699 -728 -736 -169 -17 -378 26 -535 109 -159 85 -307 242 -391 415 -81 165 -95 230 -95 430 1 159 3 175 29 255 83 249 231 422 462 538 121 61 246 83 419 75 55 -2 240 -15 410 -28z m839 -6 c22 -6 56 -29 82 -55 25 -24 47 -44 49 -44 3 0 5 9 5 19 0 10 13 32 28 49 59 63 171 50 257 -29 l40 -37 22 32 c42 65 155 91 259 61 64 -18 114 -47 173 -100 l38 -35 17 45 c46 118 201 139 300 39 l44 -44 19 38 c11 21 35 45 54 55 65 34 177 3 234 -65 19 -22 30 -29 33 -20 2 8 18 29 34 47 52 60 172 69 280 23 130 -56 226 -247 216 -433 -5 -89 -27 -147 -69 -177 -33 -25 -113 -27 -156 -4 -18 9 -33 15 -33 13 0 -2 14 -65 30 -141 17 -77 28 -141 26 -143 -3 -3 -45 1 -95 7 -67 10 -92 17 -95 29 -3 9 -32 147 -66 306 -72 342 -83 381 -113 417 -42 52 -117 43 -117 -14 0 -20 84 -432 96 -470 5 -16 -4 -18 -89 -18 -89 0 -95 1 -100 22 l-6 23 -20 -22 c-39 -42 -154 -38 -228 8 -97 60 -193 243 -193 368 0 27 -8 42 -41 72 -52 48 -92 67 -162 75 -51 6 -58 4 -81 -19 -23 -23 -26 -34 -26 -95 0 -167 91 -372 164 -372 30 0 38 22 34 90 -3 44 -2 45 28 48 58 6 92 -70 64 -142 -25 -68 -156 -89 -257 -42 -122 57 -207 206 -229 403 -8 77 -42 116 -94 111 -58 -5 -58 -15 -6 -265 26 -125 50 -236 52 -245 5 -16 -4 -18 -90 -18 -53 0 -96 2 -96 5 0 27 -95 437 -107 462 -36 77 -124 87 -123 14 0 -15 22 -127 48 -251 l48 -225 -106 -7 c-111 -8 -406 6 -885 43 -365 28 -433 27 -501 -6 -183 -90 -214 -326 -62 -478 52 -52 117 -77 198 -77 68 0 110 13 167 51 54 37 81 83 95 161 15 83 33 124 64 145 49 32 138 13 170 -35 29 -44 30 -137 2 -218 -87 -250 -303 -386 -561 -354 -228 28 -408 202 -463 446 -65 296 118 583 406 636 48 9 107 8 283 -5 122 -9 303 -22 402 -27 229 -13 535 -39 547 -46 5 -3 6 5 3 18 -42 183 -48 312 -14 359 31 44 99 59 173 38z m2473 -18 c22 -11 54 -34 72 -53 21 -20 35 -28 38 -21 9 24 46 64 71 77 73 37 207 26 262 -21 32 -26 57 -67 70 -115 l8 -27 -52 29 c-69 39 -138 42 -161 6 -22 -34 -30 -93 -15 -111 7 -8 24 -15 39 -15 39 0 131 -46 174 -88 68 -65 97 -148 77 -222 -17 -62 -55 -82 -150 -78 -81 3 -141 27 -193 76 -71 68 -132 208 -144 334 -5 59 -10 74 -35 99 -19 18 -40 29 -58 29 -48 0 -60 -9 -60 -46 0 -18 34 -191 75 -385 41 -194 73 -354 71 -357 -3 -2 -45 2 -95 8 -67 10 -92 17 -95 29 -3 9 -37 167 -76 351 -78 368 -83 420 -41 478 12 17 37 36 54 42 44 13 118 5 164 -19z"/>
 <path d="M5115 2739 c-5 -7 -1 -18 11 -26 24 -17 33 2 11 24 -11 12 -16 12 -22 2z"/>
 <path d="M5127 2613 c-20 -20 12 -139 43 -158 25 -15 32 12 19 74 -14 73 -40 107 -62 84z"/>
 <path d="M3775 2607 c-3 -7 1 -42 8 -77 11 -54 17 -66 34 -68 38 -6 41 62 7 131 -15 28 -41 36 -49 14z"/>
 <path d="M4000 2524 c0 -23 32 -74 47 -74 20 0 15 34 -8 64 -23 29 -39 34 -39 10z"/>
 <path d="M3824 2065 c-37 -57 2 -263 71 -366 32 -49 82 -73 120 -59 32 12 32 28 0 182 -36 176 -43 195 -76 233 -40 45 -89 49 -115 10z"/>
 <path d="M4516 2074 c-23 -22 -20 -48 19 -234 24 -110 41 -169 52 -177 9 -7 34 -13 55 -13 45 0 65 24 74 92 14 101 -41 279 -101 326 -33 26 -77 28 -99 6z"/>
 <path d="M5440 1866 c0 -33 60 -172 91 -208 53 -65 108 -42 93 40 -14 82 -85 165 -152 178 -26 5 -32 3 -32 -10z"/>
 </g>
<g id="layer2" fill="#6a9a5d" stroke="none">
 <path d="M1154 2585 c-259 -46 -476 -158 -650 -337 -485 -496 -469 -1289 35 -1797 275 -277 652 -421 1008 -383 393 41 758 292 932 640 70 139 131 383 131 521 0 106 -86 167 -175 125 -49 -23 -65 -62 -76 -191 -33 -376 -283 -693 -643 -813 -471 -157 -1002 93 -1221 575 -65 141 -87 234 -92 388 -10 268 53 478 204 682 70 94 112 134 218 205 92 62 157 92 262 121 110 30 363 37 573 16 312 -32 441 -40 452 -29 13 13 -165 133 -285 192 -146 71 -238 91 -427 96 -113 2 -190 -1 -246 -11z"/>
 <path d="M1244 2240 c-90 -10 -172 -33 -248 -72 -231 -116 -379 -289 -462 -538 -26 -80 -28 -96 -29 -255 0 -148 3 -180 23 -250 56 -195 184 -391 330 -505 99 -77 164 -111 295 -155 516 -173 997 130 1101 692 28 149 -12 233 -110 233 -89 0 -131 -60 -133 -190 -2 -74 -38 -173 -95 -259 -131 -197 -363 -304 -584 -271 -157 24 -291 97 -405 220 -200 217 -239 543 -95 800 51 92 97 141 184 199 143 96 250 112 579 87 301 -22 835 -50 841 -43 7 6 -9 31 -103 159 l-64 86 -67 6 c-171 16 -697 55 -787 59 -55 3 -132 1 -171 -3z"/>
 <path d="M2543 2209 c-85 -25 -96 -145 -38 -397 3 -13 2 -21 -3 -18 -12 7 -318 33 -547 46 -99 5 -280 18 -402 27 -176 13 -235 14 -283 5 -231 -43 -400 -236 -417 -478 -11 -158 54 -337 165 -451 225 -233 630 -203 800 60 64 100 96 195 89 273 -7 94 -46 135 -130 137 -70 2 -104 -42 -125 -161 -14 -78 -41 -124 -95 -161 -57 -38 -99 -51 -167 -51 -81 0 -146 25 -198 77 -152 152 -121 388 62 478 68 33 136 34 501 6 479 -37 774 -51 885 -43 l106 7 -48 225 c-26 124 -48 236 -48 251 -1 73 87 63 123 -14 12 -25 107 -435 107 -462 0 -3 43 -5 96 -5 86 0 95 2 90 18 -2 9 -26 120 -52 245 -52 250 -52 260 6 265 52 5 86 -34 94 -111 11 -93 25 -145 62 -223 63 -133 161 -204 284 -204 74 0 124 23 140 66 28 72 -6 148 -64 142 -30 -3 -31 -4 -28 -48 4 -68 -4 -90 -34 -90 -73 0 -164 205 -164 372 0 61 3 72 26 95 23 23 30 25 81 19 70 -8 110 -27 162 -75 33 -30 41 -45 41 -72 0 -125 96 -308 193 -368 74 -46 189 -50 228 -8 l20 22 6 -23 c5 -21 11 -22 100 -22 85 0 94 2 89 18 -12 38 -96 450 -96 470 0 57 75 66 117 14 30 -36 41 -75 113 -417 34 -159 63 -297 66 -306 3 -12 28 -19 95 -29 50 -6 92 -10 95 -7 2 2 -9 66 -26 143 -16 76 -30 139 -30 141 0 2 15 -4 33 -13 43 -23 123 -21 156 4 42 30 64 88 69 177 10 186 -86 377 -216 433 -108 46 -228 37 -280 -23 -16 -18 -32 -39 -34 -47 -3 -9 -14 -2 -33 20 -57 68 -169 99 -234 65 -19 -10 -43 -34 -54 -55 l-19 -38 -44 44 c-99 100 -254 79 -300 -39 l-17 -45 -38 35 c-59 53 -109 82 -173 100 -104 30 -217 4 -259 -61 l-22 -32 -40 37 c-86 79 -198 92 -257 29 -15 -17 -28 -39 -28 -49 0 -10 -2 -19 -5 -19 -2 0 -24 20 -49 44 -60 60 -124 78 -203 55z m1396 -154 c33 -38 40 -57 76 -233 32 -154 32 -170 0 -182 -88 -33 -190 127 -202 317 -7 101 8 133 61 133 26 0 41 -8 65 -35z m676 13 c60 -47 115 -225 101 -326 -9 -68 -29 -92 -74 -92 -21 0 -46 6 -55 13 -16 12 -87 311 -87 369 0 57 63 77 115 36z"/>
 <path d="M4973 2210 c-17 -6 -42 -25 -54 -42 -42 -58 -37 -110 41 -478 39 -184 73 -342 76 -351 3 -12 28 -19 95 -29 50 -6 92 -10 95 -8 2 3 -30 163 -71 357 -41 194 -75 367 -75 385 0 37 12 46 60 46 18 0 39 -11 58 -29 25 -25 30 -40 35 -99 12 -126 73 -266 144 -334 52 -49 112 -73 193 -76 95 -4 133 16 150 78 20 74 -9 157 -77 222 -43 42 -135 88 -174 88 -15 0 -32 7 -39 15 -15 18 -7 77 15 111 23 36 92 33 161 -6 l52 -29 -8 27 c-13 48 -38 89 -70 115 -55 47 -189 58 -262 21 -25 -13 -62 -53 -71 -77 -3 -7 -17 1 -38 21 -64 65 -162 94 -236 72z m563 -365 c62 -48 108 -160 84 -205 -17 -32 -54 -25 -89 18 -31 36 -91 175 -91 208 0 23 53 12 96 -21z"/>
 </g>
<g id="layer3" fill="#8b500e" stroke="none">
 <path d="M5098 2779 c-21 -12 -23 -48 -5 -71 6 -9 26 -23 42 -31 l30 -16 -37 6 c-25 4 -45 1 -61 -10 -20 -13 -26 -13 -42 -1 -10 8 -32 14 -48 14 -29 0 -29 -1 -14 -18 25 -27 21 -35 -8 -16 -14 9 -25 13 -25 9 0 -4 -8 -1 -17 6 -14 12 -15 12 -9 0 7 -10 3 -12 -15 -6 -22 7 -23 6 -8 -10 13 -13 21 -15 37 -6 16 8 21 7 26 -5 9 -25 7 -27 -11 -13 -15 13 -16 11 -10 -11 3 -13 14 -59 23 -102 l17 -78 33 0 c30 0 34 3 34 27 0 15 -9 37 -21 49 -17 18 -19 26 -10 42 6 11 8 28 5 37 -6 14 -9 13 -30 -6 -13 -12 -26 -20 -29 -18 -3 3 11 20 29 39 41 39 66 35 66 -10 0 -19 5 -29 13 -27 8 1 12 -9 11 -30 -2 -30 0 -32 27 -26 31 6 47 -13 35 -43 -5 -14 -9 -14 -22 -3 -14 12 -14 14 2 19 11 4 14 9 7 13 -6 4 -19 4 -28 1 -14 -6 -14 -8 2 -26 21 -23 59 -46 49 -29 -4 7 1 11 13 11 11 0 22 -4 25 -8 3 -5 30 -10 60 -11 l54 -1 -23 107 c-13 59 -22 110 -19 112 2 2 10 -2 18 -8 19 -16 42 -79 56 -153 l11 -58 38 0 38 0 -18 83 c-22 99 -23 117 -6 117 26 0 45 -35 61 -114 9 -43 16 -80 16 -81 0 -2 36 -3 79 -3 57 0 83 4 92 14 11 14 10 52 -7 147 -5 30 -4 37 10 37 19 0 21 21 4 38 -17 17 -63 15 -78 -3 -12 -15 -11 -51 6 -147 5 -30 3 -38 -8 -38 -25 0 -36 22 -56 111 l-18 84 -37 3 c-25 2 -37 -1 -37 -9 0 -10 -3 -10 -12 -1 -19 19 -76 15 -90 -7 -11 -18 -12 -18 -32 0 -11 11 -25 19 -32 19 -6 0 -15 16 -19 36 -12 67 -76 103 -127 73z m51 -68 c-3 -8 -10 -8 -23 2 -12 8 -16 19 -11 26 6 10 11 10 22 -2 9 -8 14 -20 12 -26z m14 -105 c19 -20 42 -135 29 -148 -15 -15 -32 0 -53 46 -35 77 -19 145 24 102z"/>
 <path d="M2484 2673 c-40 -8 -58 -40 -62 -107 -9 -137 57 -253 151 -263 66 -8 99 15 95 65 -3 32 -7 37 -32 40 -24 3 -28 1 -21 -15 15 -38 16 -50 3 -61 -20 -16 -53 9 -78 58 -27 54 -45 167 -32 201 15 37 54 45 100 21 38 -19 40 -24 62 -134 l11 -58 38 0 38 0 -18 83 c-23 100 -23 117 -4 117 20 0 30 -23 50 -117 l18 -83 33 0 c40 0 41 3 17 112 -9 43 -13 81 -9 85 16 16 40 -17 57 -77 22 -81 60 -120 118 -120 44 0 64 18 59 52 -5 33 -38 37 -38 4 0 -16 -6 -26 -14 -26 -19 0 -48 66 -54 121 -4 41 -2 48 16 53 22 7 70 -13 90 -37 9 -10 42 -139 42 -163 0 -2 17 -4 38 -4 l39 0 -18 83 c-23 100 -23 117 -4 117 20 0 30 -23 50 -117 l18 -83 33 0 c40 0 41 3 17 112 -17 80 -15 95 11 85 15 -6 26 -37 46 -139 l11 -57 77 1 c53 0 82 4 93 14 14 13 18 13 29 -1 7 -8 28 -15 48 -15 28 0 33 3 24 12 -7 7 -12 22 -12 35 0 26 -3 28 -29 11 -29 -18 -48 4 -61 70 -6 31 -15 66 -21 77 -8 17 -8 16 -3 -5 6 -23 6 -24 -11 -10 -17 14 -17 13 -10 -10 7 -24 7 -24 -11 -7 -18 18 -18 19 8 42 27 23 27 23 5 29 -34 9 -40 7 -27 -9 8 -10 9 -15 2 -15 -6 0 -16 8 -21 18 -10 16 -10 16 -11 0 0 -9 5 -20 10 -23 6 -4 8 -10 6 -13 -2 -4 2 -37 9 -72 9 -41 10 -69 4 -75 -18 -18 -38 19 -57 105 l-18 85 -76 2 c-55 1 -80 -2 -88 -12 -10 -12 -15 -12 -35 1 -31 20 -75 14 -89 -11 -6 -11 -12 -22 -14 -24 -1 -3 -13 6 -27 19 -35 32 -115 40 -142 13 -19 -19 -20 -19 -43 -1 -27 22 -73 24 -90 3 -11 -13 -15 -13 -33 0 -31 22 -73 19 -91 -6 l-14 -21 -29 21 c-29 21 -91 33 -129 24z m1036 -113 c0 -5 -5 -10 -11 -10 -5 0 -7 5 -4 10 3 6 8 10 11 10 2 0 4 -4 4 -10z"/>
 <path d="M3582 2658 c-15 -15 -16 -54 -2 -63 15 -9 12 -27 -2 -19 -9 5 -10 4 -3 -4 6 -5 19 -12 30 -14 15 -3 20 -11 19 -36 -2 -33 2 -37 24 -23 11 6 11 16 3 47 -15 53 -14 74 4 74 23 0 43 -39 60 -115 9 -39 17 -75 17 -82 1 -7 6 -10 11 -6 5 3 7 -8 3 -28 -6 -27 -5 -30 4 -16 17 26 39 20 47 -14 5 -16 13 -29 18 -29 6 1 9 6 8 10 -2 5 -5 26 -9 48 -6 39 -6 39 24 34 45 -6 67 31 59 103 -6 63 -29 106 -67 129 -37 21 -95 21 -117 -1 -17 -17 -19 -17 -35 0 -21 20 -78 23 -96 5z m242 -65 c34 -69 31 -137 -7 -131 -17 2 -23 14 -34 68 -7 35 -11 70 -8 77 8 22 34 14 49 -14z"/>
 <path d="M3938 2660 c-45 -28 -24 -167 33 -214 33 -28 95 -36 117 -14 34 34 -2 107 -63 129 -40 15 -49 53 -15 64 20 6 69 -14 88 -38 9 -10 42 -139 42 -163 0 -10 69 -3 73 9 3 9 7 9 20 -1 24 -20 61 -11 65 16 6 44 -40 72 -53 32 -5 -15 -10 -18 -23 -11 -11 6 -24 42 -38 103 l-20 93 -38 3 c-35 3 -38 1 -33 -17 6 -25 0 -26 -25 -5 -21 20 -106 29 -130 14z m101 -146 c23 -30 28 -64 8 -64 -15 0 -47 51 -47 74 0 24 16 19 39 -10z"/>
 <path d="M4450 2655 c0 -8 14 -78 30 -155 17 -77 30 -143 30 -145 0 -3 17 -5 39 -5 l38 0 -17 75 c-20 85 -10 97 35 44 21 -26 25 -40 23 -78 -4 -57 -33 -76 -89 -61 -50 14 -80 50 -86 104 -4 36 -9 43 -22 38 -41 -15 -41 -60 -1 -106 63 -71 189 -88 237 -31 29 33 30 88 4 131 -18 30 -74 64 -105 64 -19 0 -21 4 -36 83 -11 56 -12 57 -46 57 -23 0 -34 -5 -34 -15z"/>
 <path d="M4692 2658 c-18 -18 -15 -77 13 -204 14 -64 25 -117 25 -119 0 -1 16 -5 35 -7 43 -5 43 -6 10 146 -29 133 -30 146 -12 146 26 0 45 -35 61 -114 9 -43 16 -80 16 -82 0 -2 17 -4 38 -4 l38 0 -20 99 c-12 54 -27 105 -34 114 -8 9 -11 21 -7 27 10 16 -21 12 -35 -5 -12 -14 -15 -14 -36 0 -28 18 -75 20 -92 3z"/>
 <path d="M3585 2540 c-3 -5 -2 -17 3 -26 8 -14 10 -14 21 0 13 15 8 36 -9 36 -5 0 -12 -4 -15 -10z"/>
 <path d="M3640 2475 c-6 -8 -9 -19 -5 -25 11 -18 23 -11 23 15 0 29 -2 30 -18 10z"/>
 <path d="M5352 2388 c-29 -29 -2 -72 40 -66 42 6 32 78 -11 78 -9 0 -22 -5 -29 -12z"/>
 <path d="M3762 2358 c-7 -7 -12 -16 -12 -20 0 -12 28 -10 36 3 10 17 -10 31 -24 17z"/>
 </g>
<g id="layer4" fill="#7f490c" stroke="none">
 <path d="M3440 2662 c0 -12 19 -26 26 -19 2 2 -2 10 -11 17 -9 8 -15 8 -15 2z"/>
 <path d="M4855 2660 c-8 -12 12 -40 27 -40 6 0 4 7 -3 16 -12 15 -11 16 11 9 22 -7 23 -6 11 9 -15 18 -37 21 -46 6z"/>
 <path d="M4927 2638 c-10 -11 -16 -22 -13 -25 3 -4 6 -3 6 2 0 4 7 1 16 -6 15 -12 16 -11 10 9 -8 24 3 29 22 10 7 -7 12 -8 12 -2 0 11 -21 34 -29 33 -4 0 -14 -10 -24 -21z"/>
 <path d="M3475 2630 c-18 -20 -18 -21 -1 -38 17 -16 18 -16 11 8 -7 22 -6 23 8 12 13 -11 15 -9 13 13 -1 30 -7 31 -31 5z"/>
 <path d="M4965 2580 c-16 -17 -24 -30 -19 -30 13 0 59 48 52 55 -2 3 -17 -9 -33 -25z"/>
 <path d="M3570 2591 c0 -5 5 -13 10 -16 6 -3 10 -2 10 4 0 5 -4 13 -10 16 -5 3 -10 2 -10 -4z"/>
 <path d="M3505 2560 c-3 -5 -1 -10 4 -10 6 0 11 5 11 10 0 6 -2 10 -4 10 -3 0 -8 -4 -11 -10z"/>
 <path d="M3580 2551 c0 -6 6 -8 14 -5 22 8 30 -15 12 -35 -20 -22 -21 -32 -2 -25 10 4 16 -3 18 -22 2 -15 10 -30 18 -32 13 -5 13 -3 1 12 -12 14 -11 19 5 38 19 20 19 21 -3 14 -19 -6 -21 -3 -20 26 2 27 -2 34 -20 36 -13 2 -23 -1 -23 -7z"/>
 <path d="M5051 2553 c0 -4 4 -17 9 -28 8 -19 9 -19 9 2 1 12 -3 25 -9 28 -5 3 -10 3 -9 -2z"/>
 <path d="M4996 2535 c-4 -12 -1 -24 9 -34 13 -13 15 -13 14 -1 0 8 -4 24 -8 34 -7 19 -8 19 -15 1z"/>
 <path d="M5074 2488 c-5 -8 -2 -9 10 -5 10 4 23 4 29 0 7 -4 4 -9 -7 -13 -16 -5 -16 -7 -2 -19 13 -11 17 -11 22 3 3 9 4 23 0 31 -6 18 -42 20 -52 3z"/>
 <path d="M5134 2433 c11 -11 48 -14 41 -3 -3 5 -16 10 -27 10 -12 0 -18 -3 -14 -7z"/>
 <path d="M3737 2409 c4 -13 8 -18 11 -10 2 7 -1 18 -6 23 -8 8 -9 4 -5 -13z"/>
 <path d="M3757 2383 c-4 -3 -7 -13 -7 -21 0 -11 3 -12 14 -3 16 13 32 -2 21 -19 -3 -5 -1 -10 4 -10 12 0 14 20 5 44 -6 16 -26 21 -37 9z"/>
 </g>

</svg>